PathFileType	4	(X/Y/Z)	..\data\2014001\dynamic\2014001_C4_05.trc
DataRate	CameraRate	NumFrames	NumMarkers	Units	OrigDataRate	OrigDataStartFrame	OrigNumFrames
100.000000	100.000000	4	52	mm	100.000000	97	156
Frame#	Time	L_IAS			L_IPS			R_IPS			R_IAS			L_FTC			L_FLE			L_FME			L_FAX			L_TTC			L_FAL			L_TAM			L_FCC			L_FM1			L_FM2			L_FM5			R_FTC			R_FLE			R_FME			R_FAX			R_TTC			R_FAL			R_TAM			R_FCC			R_FM1			R_FM2			R_FM5			CV7			TV10			SXS			SJN			L_SIA			L_SRS			L_SAA			L_SAE			L_HLE			L_HME			L_UOA			L_RSP			L_UHE			L_HM2			L_HM5			R_SIA			R_SRS			R_SAA			R_SAE			R_HLE			R_HME			R_UOA			R_RSP			R_UHE			R_HM2			R_HM5			
		X1	Y1	Z1	X2	Y2	Z2	X3	Y3	Z3	X4	Y4	Z4	X5	Y5	Z5	X6	Y6	Z6	X7	Y7	Z7	X8	Y8	Z8	X9	Y9	Z9	X10	Y10	Z10	X11	Y11	Z11	X12	Y12	Z12	X13	Y13	Z13	X14	Y14	Z14	X15	Y15	Z15	X16	Y16	Z16	X17	Y17	Z17	X18	Y18	Z18	X19	Y19	Z19	X20	Y20	Z20	X21	Y21	Z21	X22	Y22	Z22	X23	Y23	Z23	X24	Y24	Z24	X25	Y25	Z25	X26	Y26	Z26	X27	Y27	Z27	X28	Y28	Z28	X29	Y29	Z29	X30	Y30	Z30	X31	Y31	Z31	X32	Y32	Z32	X33	Y33	Z33	X34	Y34	Z34	X35	Y35	Z35	X36	Y36	Z36	X37	Y37	Z37	X38	Y38	Z38	X39	Y39	Z39	X40	Y40	Z40	X41	Y41	Z41	X42	Y42	Z42	X43	Y43	Z43	X44	Y44	Z44	X45	Y45	Z45	X46	Y46	Z46	X47	Y47	Z47	X48	Y48	Z48	X49	Y49	Z49	X50	Y50	Z50	X51	Y51	Z51	X52	Y52	Z52	

98	0.97	164.1754608154297	849.9094238281252	89.55130004882815	-9.290393829345726	896.687927246094	173.3519744873047	-8.489109992980991	886.1926269531252	262.2873535156251	169.6355743408203	854.8522949218752	327.4761047363282	71.86960601806642	780.104675292969	30.44194793701173	-35.43719863891603	439.8345947265626	76.37987518310548	-15.22734928131106	422.2827453613282	187.9511260986328	-72.2239685058594	385.5609436035157	73.66026306152344	-18.50925827026369	347.8123779296876	119.59814453125	-194.1882476806641	86.74165344238283	119.5687561035156	-170.1758880615235	93.14880371093751	208.5854644775391	-244.964096069336	58.74525833129884	166.60546875	-67.48908233642582	25.01511383056641	190.3428955078125	-57.34529876708987	34.83765029907227	129.7058715820313	-113.7235946655274	24.95666503906251	85.45213317871094	84.01130676269528	753.7475585937501	390.4070129394532	237.4024047851562	432.7976989746095	369.6414184570314	271.0069580078125	429.3383789062501	250.9025421142579	247.1339721679688	370.3007507324219	371.9575195312501	316.0261840820312	390.4886169433595	333.2668457031251	373.6001281738281	74.93623352050783	339.3729553222657	411.2983703613282	112.8050384521485	264.9076232910157	364.2528686523438	23.10378646850586	276.2473754882814	529.7612915039064	111.3517227172852	301.5048217773439	512.7008666992189	113.8957214355469	357.984832763672	473.6555786132813	68.87024688720705	385.7845764160158	29.09875488281248	1357.55419921875	216.9250183105469	-32.02865982055668	1124.820922851563	203.6243438720704	200.8158264160157	1129.08056640625	217.0649414062501	158.5532836914062	1292.227783203125	222.4938201904298	-20.4915180206299	1167.41845703125	103.6163177490235	-3.327256202697769	1296.951293945313	119.8942260742188	83.86679077148439	1300.688110351563	19.35149002075197	120.1733627319336	1312.003051757813	43.35683441162112	160.4136199951172	1037.788818359375	-56.55970764160156	131.9741516113282	990.1453857421877	10.93448543548586	138.6953887939453	987.2681884765627	-40.91765975952148	349.4395141601563	897.062683105469	36.09555816650396	334.8587036132813	866.6250000000002	-34.94465255737301	425.2130432128907	855.2379150390627	47.34896850585943	379.1568298339844	802.1472778320315	-24.77422142028805	-49.94140243530278	1164.120849609375	310.0906677246094	-19.10494995117191	1288.030395507813	295.7378540039063	47.35604858398433	1279.765380859375	406.1080017089845	98.08317565917967	1283.006103515625	400.781463623047	19.57449340820307	987.7692871093752	458.6540832519532	-2.397167921066331	976.0452880859377	379.0459289550782	-11.17848300933843	972.5203857421877	424.854949951172	70.54284667968746	763.4725341796876	443.5065307617189	15.44342327117914	776.2540283203127	501.7335815429689	82.96222686767574	672.8903808593751	464.3903198242189	-6.766103267669742	698.4863281250001	505.4532775878907	
99	0.98	178.020004272461	847.906188964844	89.86678314208989	5.102628707885722	894.762145996094	175.4749450683594	6.59087610244748	883.5572509765627	264.4820556640626	185.3399505615234	852.2197875976565	327.8169250488282	84.63291931152345	779.0972900390627	31.21936798095705	-25.95611572265627	439.963836669922	76.21016693115236	-5.369100570678735	421.6744079589845	187.7804260253907	-63.64793777465822	386.3169555664064	73.37081146240234	-10.63809299468996	347.3482666015626	119.0216522216797	-192.9098663330079	90.39273834228517	118.3152923583984	-168.6360321044922	96.03156280517581	207.4621734619141	-244.3002166748048	63.45123672485353	165.3139038085938	-67.22969055175786	25.23839569091798	190.0269165039063	-56.81509780883792	34.73356628417969	129.2903289794922	-113.27392578125	24.85314559936524	85.06916809082031	100.0444107055664	751.0440063476564	391.5067749023439	254.5597686767578	431.3073730468751	369.7926635742189	286.8692932128906	427.941619873047	250.7432556152345	264.9709167480469	368.8838500976563	372.1904602050782	333.3562927246094	389.7601013183595	332.6969604492189	394.1674194335938	74.55158996582033	339.4897766113282	430.6553649902344	112.5733795166016	264.4165954589845	384.2343444824219	22.72593688964844	276.5220031738282	549.7307128906251	111.9988861083985	299.1554260253907	533.8103637695314	114.0928039550782	355.9365539550782	495.5007324218751	68.51763153076173	384.1568603515627	43.63134002685545	1355.154907226563	218.4344024658204	-17.44790649414065	1122.49267578125	205.2107849121094	215.4723052978516	1126.644165039063	218.5960845947266	173.0530090332031	1289.782470703125	224.2589263916016	-5.939555644989028	1165.086547851563	105.2008895874024	11.34862899780272	1294.671142578125	121.3943328857422	98.80184173583987	1298.170043945313	20.95082664489748	135.0503540039063	1309.4990234375	45.14339447021487	175.6422271728516	1035.559814453125	-55.23815155029296	147.3384246826172	987.6704101562502	12.22940158843996	154.1492614746094	984.7273559570315	-39.59573745727538	365.6412353515626	897.0718994140627	38.19113159179692	351.9794921875001	866.3681640625002	-32.79414367675778	442.0604858398439	856.591247558594	49.73664474487312	397.1385498046876	802.5246582031252	-22.25543403625484	-35.50783157348637	1161.412231445313	311.2366333007813	-4.711330413818397	1285.49755859375	297.0626220703126	61.37541961669918	1277.174560546875	407.6011047363282	112.1666641235351	1280.506469726563	402.487274169922	32.53672409057612	985.5067138671877	459.8519897460939	11.56406593322749	973.6636352539065	379.6905212402344	2.356847524642893	970.4020996093752	425.5079956054689	82.09000396728511	760.6705932617189	445.5963134765626	26.49045181274409	774.1678466796877	503.1199645996095	93.27227783203121	669.9238281250001	466.9026489257814	3.411397457122741	696.7740478515626	506.9283142089845	
100	0.99	192.2767181396485	846.0770263671877	90.27232360839848	19.91919517517088	892.9497070312502	177.6772766113282	22.04378890991208	881.153015136719	266.7414855957032	201.4237518310547	850.002136230469	328.2532958984376	97.86405181884768	778.1232910156252	32.21413040161135	-15.5279941558838	440.0841064453126	75.95509338378908	5.48813199996946	420.9786682128907	187.5426788330078	-54.25123214721682	387.1183471679689	73.04363250732423	-1.984666347503677	346.8235473632813	118.3352127075196	-191.2965850830079	94.51181030273439	117.0505447387695	-166.5946807861329	99.2382736206055	206.2029113769532	-243.2363586425782	68.74948120117189	164.034912109375	-67.00594329833989	25.38156127929688	189.729736328125	-56.32123947143558	34.53950881958009	128.8528594970703	-112.8439102172852	24.76559448242188	84.71612548828125	116.6719970703125	748.7684326171876	392.7667541503907	272.28271484375	430.246307373047	370.012420654297	303.1047973632812	426.9163208007814	250.748748779297	282.8988037109375	367.7437438964844	372.4891357421876	350.8192138671875	388.8540039062501	332.0676879882814	411.6310119628907	73.60898590087892	339.3115844726564	447.2390136718751	111.3259582519532	263.6014404296876	400.5015869140626	22.05599212646485	276.5027465820314	566.6744995117189	110.3133087158203	296.5362854003907	551.9584350585939	112.1161193847657	353.607879638672	513.9110107421876	66.59102630615236	382.224334716797	58.18186950683592	1352.90771484375	220.0950469970704	-2.662652015686061	1120.235229492188	206.9684295654297	230.3229370117188	1124.498901367188	220.200164794922	187.6422882080078	1287.578247070313	226.0577239990235	8.645543098449696	1162.83056640625	107.0192184448242	25.96264266967773	1292.494873046875	123.0881576538086	113.5519104003907	1295.7646484375	22.67090988159181	149.7807006835938	1307.144897460938	46.95743179321292	190.5424041748047	1033.394287109375	-53.76872634887695	162.3897552490235	985.317077636719	13.71125793457034	169.2006378173828	982.2961425781252	-38.08475112915038	381.3927001953126	896.756042480469	40.17080307006842	368.3683166503907	865.794372558594	-30.75427436828609	458.2919006347657	857.3818359375002	51.87860870361335	414.2444763183595	802.490173339844	-19.93818664550777	-20.85931587219243	1158.8466796875	312.6047973632813	9.823974609374964	1283.104736328125	298.5893554687501	75.63537597656246	1274.792358398438	409.2327575683595	126.4724884033203	1278.228149414063	404.3007202148439	45.71639251708979	983.4359130859377	461.1607055664064	25.75600814819332	971.480895996094	380.4801940917969	16.11179924011225	968.4512329101565	426.2932434082032	94.19767761230464	758.1523437500001	447.711883544922	37.94649505615229	772.2198486328127	504.477752685547	104.2729721069336	667.2809448242189	469.4121704101564	14.16029834747309	695.1640625000001	508.2707824707032	
101	1	207.0062713623047	844.4333496093752	90.82499694824223	35.18368530273436	891.276306152344	179.9105987548828	37.86891174316403	879.0345458984377	269.0218505859376	217.875	848.2573852539065	328.8251037597657	111.6118087768555	777.1644287109377	33.43514251708987	-4.138905525207529	440.183807373047	75.6036834716797	17.40798950195311	420.1452636718751	187.210205078125	-44.02329254150392	387.9724121093751	72.68215179443361	7.47778511047362	346.2146606445313	117.5007629394532	-189.2317199707032	99.08900451660159	115.8338241577148	-163.8923339843751	102.7524719238282	204.83642578125	-241.5993804931641	74.67862701416017	162.8658142089844	-66.8537979125977	25.4317798614502	189.4712219238282	-55.92448043823245	34.24015045166016	128.4139251708985	-112.4633483886719	24.74421691894532	84.43047332763672	133.8722381591797	746.9797363281251	394.1914672851564	290.5361938476562	429.6302490234376	370.2845458984376	319.6751708984375	426.271697998047	250.8977050781251	300.9497985839844	366.9006042480469	372.8532104492189	368.419921875	387.8175354003907	331.3573608398439	426.2195129394532	72.14556884765626	338.9094543457032	461.2421264648438	109.125473022461	262.5220947265626	413.2996520996094	21.13040924072266	276.2823791503907	580.8088989257814	106.3739776611328	293.6846008300782	567.3646850585939	108.0363082885742	351.0541381835939	529.0966796875001	63.18928527832033	380.091766357422	72.7398223876953	1350.843383789063	221.9029998779297	12.33453845977781	1118.072143554688	208.8867492675782	245.3717193603516	1122.686157226563	221.8766021728516	202.3151550292969	1285.652587890625	227.8834838867188	23.269962310791	1160.668579101563	109.0711669921875	40.50754165649413	1290.443115234375	124.9740524291992	128.1012115478516	1293.505126953125	24.50452423095705	164.3480682373047	1304.978637695313	48.78647232055668	205.0874938964844	1031.321899414063	-52.16623306274413	177.1230163574219	983.1174316406252	15.36415672302249	183.828842163086	980.0085449218752	-36.39477920532225	396.6694946289064	896.1156005859377	42.02664566040045	384.0127563476564	864.9150390625002	-28.83872222900387	473.8939819335939	857.5972290039065	53.77749252319343	430.4620666503907	802.0437622070315	-17.83824157714839	-5.993114471435586	1156.456909179688	314.2023620605469	24.50046157836911	1280.88037109375	300.3167724609376	90.14532470703121	1272.653198242188	410.9996337890626	141.0074768066406	1276.203735351563	406.2121582031251	59.15128707885738	981.5843505859377	462.5747375488282	40.16901016235347	969.5384521484377	381.4289855957032	30.09272193908687	966.7017211914065	427.2249145507814	106.8582687377929	755.9405517578126	449.8289794921876	49.85358047485347	770.440368652344	505.8140869140626	115.9853439331054	664.9862060546876	471.8828125000001	25.51853752136225	693.6732788085939	509.4967651367189	
